<svg width="34" height="32" viewBox="0 0 34 32" fill="none" xmlns="http://www.w3.org/2000/svg">
<g clip-path="url(#clip0_800_13434)">
<path d="M27.543 0H5.88673C2.63536 0 0 2.63577 0 5.88672V26.1132C0 29.3646 2.63577 32 5.88673 32H27.543C30.7943 32 33.4297 29.3642 33.4297 26.1132V5.88672C33.4297 2.63536 30.7943 0 27.543 0Z" fill="url(#paint0_linear_800_13434)"/>
<path d="M26.0426 25.2951L18.4569 14.3512L25.2089 6.41833H23.689L17.7751 13.3673L12.9587 6.41874H7.62305L14.8344 16.8225L7.62305 25.2951H9.14295L15.5165 17.8068L20.7073 25.2951H26.0426ZM9.98472 7.65561H12.3107L16.9451 14.3419L15.6631 15.848L9.98472 7.65561ZM17.6277 15.3262L23.6805 24.0586H21.3545L16.3457 16.8323L17.6277 15.3262Z" fill="url(#paint1_linear_800_13434)"/>
<path d="M27.543 31.5436H5.88673C2.63536 31.5436 0 28.9078 0 25.6569V26.1133C0 29.3646 2.63577 32 5.88673 32H27.543C30.7939 32 33.4297 29.3642 33.4297 26.1133V25.6569C33.4297 28.9078 30.7943 31.5436 27.543 31.5436Z" fill="url(#paint2_linear_800_13434)"/>
<path opacity="0.4" d="M5.88673 0.456417H27.543C30.7943 0.456417 33.4297 3.09218 33.4297 6.34314V5.88672C33.4297 2.63536 30.7939 0 27.543 0H5.88673C2.63536 0 0 2.63577 0 5.88672V6.34314C0 3.09178 2.63536 0.456417 5.88673 0.456417Z" fill="url(#paint3_linear_800_13434)"/>
</g>
<defs>
<linearGradient id="paint0_linear_800_13434" x1="8.717" y1="4.5636" x2="29.458" y2="34.2213" gradientUnits="userSpaceOnUse">
<stop stop-color="#616161"/>
<stop offset="0.9854" stop-color="#242424"/>
</linearGradient>
<linearGradient id="paint1_linear_800_13434" x1="11.8728" y1="8.08657" x2="24.5214" y2="29.7203" gradientUnits="userSpaceOnUse">
<stop offset="1.2e-07" stop-color="white"/>
<stop offset="1" stop-color="#DBDBDB"/>
</linearGradient>
<linearGradient id="paint2_linear_800_13434" x1="12.6737" y1="21.0339" x2="23.8919" y2="37.0748" gradientUnits="userSpaceOnUse">
<stop stop-color="#616161"/>
<stop offset="0.9854" stop-color="#242424"/>
</linearGradient>
<linearGradient id="paint3_linear_800_13434" x1="20.756" y1="10.9657" x2="9.53786" y2="-5.07516" gradientUnits="userSpaceOnUse">
<stop stop-color="#616161"/>
<stop offset="0.9854" stop-color="white"/>
</linearGradient>
<clipPath id="clip0_800_13434">
<rect width="33.4299" height="32" rx="16" fill="white"/>
</clipPath>
</defs>
</svg>
